<svg width="153" height="35" viewBox="0 0 153 35" fill="none" xmlns="http://www.w3.org/2000/svg">
<rect width="35" height="35" rx="2" fill="#625AFA"/>
<path d="M10.5746 12.1798L16.7385 9.54052C17.2004 9.34273 17.4999 8.88861 17.4999 8.38612C17.4999 7.87204 17.1866 7.40988 16.7091 7.21957L10.3497 4.68525C9.39202 4.30359 8.35148 5.00904 8.35148 6.03997V8.29001C8.35148 8.85439 8.02583 9.36811 7.5154 9.60892L4.7249 10.9255C4.21448 11.1663 3.88882 11.68 3.88882 12.2444V17.2431C3.88882 17.8519 4.26702 18.3966 4.83742 18.6094L16.5694 22.9862C17.02 23.1543 17.4999 22.8211 17.4999 22.3402C17.4999 22.1096 17.3846 21.8942 17.1927 21.7663L10.3402 17.2022C9.93419 16.9318 9.69028 16.4763 9.69028 15.9884V13.5204C9.69028 12.9368 10.0381 12.4095 10.5746 12.1798Z" fill="white"/>
<path d="M24.4254 22.8202L18.3844 25.4069C17.8479 25.6366 17.5001 26.1648 17.5001 26.7483C17.5001 27.3608 17.8827 27.9089 18.458 28.119L24.6898 30.3955C25.6412 30.7431 26.6485 30.0387 26.6485 29.0257V26.71C26.6485 26.1456 26.9742 25.6319 27.4846 25.3911L30.2751 24.0745C30.7855 23.8337 31.1112 23.32 31.1112 22.7556V17.7569C31.1112 17.1481 30.733 16.6034 30.1626 16.3906L18.4306 12.0138C17.98 11.8457 17.5001 12.1789 17.5001 12.6598C17.5001 12.8904 17.6154 13.1058 17.8073 13.2337L24.6598 17.7978C25.0658 18.0682 25.3097 18.5237 25.3097 19.0116V21.4796C25.3097 22.0632 24.9618 22.5905 24.4254 22.8202Z" fill="white"/>
<path d="M50.4 25.8C49.4933 25.8 48.63 25.64 47.81 25.32C46.99 24.9933 46.2633 24.5133 45.63 23.88C45.0033 23.2467 44.5067 22.4633 44.14 21.53C43.78 20.5967 43.6 19.52 43.6 18.3C43.6 16.7067 43.9033 15.3533 44.51 14.24C45.1233 13.12 45.9433 12.2667 46.97 11.68C48.0033 11.0933 49.1467 10.8 50.4 10.8C52.2533 10.8 53.71 11.23 54.77 12.09C55.83 12.95 56.54 14.1667 56.9 15.74L54.12 16.14C53.86 15.3 53.4333 14.63 52.84 14.13C52.2533 13.6233 51.5 13.3667 50.58 13.36C49.6667 13.3467 48.9067 13.5433 48.3 13.95C47.6933 14.3567 47.2367 14.9333 46.93 15.68C46.63 16.4267 46.48 17.3 46.48 18.3C46.48 19.3 46.63 20.1667 46.93 20.9C47.2367 21.6333 47.6933 22.2033 48.3 22.61C48.9067 23.0167 49.6667 23.2267 50.58 23.24C51.2 23.2533 51.76 23.1467 52.26 22.92C52.7667 22.6933 53.1933 22.3367 53.54 21.85C53.8867 21.3633 54.1333 20.74 54.28 19.98H52V17.88H57.18C57.1933 17.9667 57.2033 18.12 57.21 18.34C57.2167 18.56 57.22 18.6867 57.22 18.72C57.22 20.1 56.94 21.3233 56.38 22.39C55.82 23.4567 55.03 24.2933 54.01 24.9C52.99 25.5 51.7867 25.8 50.4 25.8ZM62.2242 25.8C61.4509 25.8 60.7942 25.6533 60.2542 25.36C59.7209 25.06 59.3142 24.6633 59.0342 24.17C58.7609 23.67 58.6242 23.12 58.6242 22.52C58.6242 22.02 58.7009 21.5633 58.8542 21.15C59.0076 20.7367 59.2542 20.3733 59.5942 20.06C59.9409 19.74 60.4042 19.4733 60.9842 19.26C61.3842 19.1133 61.8609 18.9833 62.4142 18.87C62.9676 18.7567 63.5942 18.65 64.2942 18.55C64.9942 18.4433 65.7642 18.3267 66.6042 18.2L65.6242 18.74C65.6242 18.1 65.4709 17.63 65.1642 17.33C64.8576 17.03 64.3442 16.88 63.6242 16.88C63.2242 16.88 62.8076 16.9767 62.3742 17.17C61.9409 17.3633 61.6376 17.7067 61.4642 18.2L59.0042 17.42C59.2776 16.5267 59.7909 15.8 60.5442 15.24C61.2976 14.68 62.3242 14.4 63.6242 14.4C64.5776 14.4 65.4242 14.5467 66.1642 14.84C66.9042 15.1333 67.4642 15.64 67.8442 16.36C68.0576 16.76 68.1842 17.16 68.2242 17.56C68.2642 17.96 68.2842 18.4067 68.2842 18.9V25.5H65.9042V23.28L66.2442 23.74C65.7176 24.4667 65.1476 24.9933 64.5342 25.32C63.9276 25.64 63.1576 25.8 62.2242 25.8ZM62.8042 23.66C63.3042 23.66 63.7242 23.5733 64.0642 23.4C64.4109 23.22 64.6842 23.0167 64.8842 22.79C65.0909 22.5633 65.2309 22.3733 65.3042 22.22C65.4442 21.9267 65.5242 21.5867 65.5442 21.2C65.5709 20.8067 65.5842 20.48 65.5842 20.22L66.3842 20.42C65.5776 20.5533 64.9242 20.6667 64.4242 20.76C63.9242 20.8467 63.5209 20.9267 63.2142 21C62.9076 21.0733 62.6376 21.1533 62.4042 21.24C62.1376 21.3467 61.9209 21.4633 61.7542 21.59C61.5942 21.71 61.4742 21.8433 61.3942 21.99C61.3209 22.1367 61.2842 22.3 61.2842 22.48C61.2842 22.7267 61.3442 22.94 61.4642 23.12C61.5909 23.2933 61.7676 23.4267 61.9942 23.52C62.2209 23.6133 62.4909 23.66 62.8042 23.66ZM83.8844 25.5V19.12C83.8844 18.4067 83.7144 17.8533 83.3744 17.46C83.041 17.06 82.5777 16.86 81.9844 16.86C81.6044 16.86 81.2744 16.95 80.9944 17.13C80.7144 17.3033 80.4944 17.55 80.3344 17.87C80.181 18.1833 80.1044 18.5467 80.1044 18.96L78.9644 18.2C78.9644 17.46 79.1377 16.8067 79.4844 16.24C79.8377 15.6733 80.3077 15.2333 80.8944 14.92C81.4877 14.6 82.1444 14.44 82.8644 14.44C84.0977 14.44 85.0277 14.8067 85.6544 15.54C86.2877 16.2667 86.6044 17.22 86.6044 18.4V25.5H83.8844ZM70.8644 25.5V14.7H73.2644V18.28H73.6044V25.5H70.8644ZM77.3844 25.5V19.12C77.3844 18.4067 77.2144 17.8533 76.8744 17.46C76.541 17.06 76.0777 16.86 75.4844 16.86C74.9177 16.86 74.461 17.0567 74.1144 17.45C73.7744 17.8367 73.6044 18.34 73.6044 18.96L72.4644 18.16C72.4644 17.4533 72.641 16.82 72.9944 16.26C73.3477 15.7 73.821 15.2567 74.4144 14.93C75.0144 14.6033 75.6844 14.44 76.4244 14.44C77.271 14.44 77.9644 14.62 78.5044 14.98C79.051 15.34 79.4544 15.82 79.7144 16.42C79.9744 17.02 80.1044 17.68 80.1044 18.4V25.5H77.3844ZM94.0294 25.8C92.9227 25.8 91.946 25.5633 91.0994 25.09C90.2594 24.61 89.5994 23.9533 89.1194 23.12C88.646 22.28 88.4094 21.32 88.4094 20.24C88.4094 19.06 88.6427 18.0333 89.1094 17.16C89.576 16.2867 90.2194 15.61 91.0394 15.13C91.8594 14.6433 92.8027 14.4 93.8694 14.4C95.0027 14.4 95.966 14.6667 96.7594 15.2C97.5527 15.7333 98.1394 16.4833 98.5194 17.45C98.8994 18.4167 99.0327 19.5533 98.9194 20.86H96.2294V19.86C96.2294 18.76 96.0527 17.97 95.6994 17.49C95.3527 17.0033 94.7827 16.76 93.9894 16.76C93.0627 16.76 92.3794 17.0433 91.9394 17.61C91.506 18.17 91.2894 19 91.2894 20.1C91.2894 21.1067 91.506 21.8867 91.9394 22.44C92.3794 22.9867 93.0227 23.26 93.8694 23.26C94.4027 23.26 94.8594 23.1433 95.2394 22.91C95.6194 22.6767 95.9094 22.34 96.1094 21.9L98.8294 22.68C98.4227 23.6667 97.7794 24.4333 96.8994 24.98C96.026 25.5267 95.0694 25.8 94.0294 25.8ZM90.4494 20.86V18.84H97.6094V20.86H90.4494ZM105.397 25.8C104.037 25.8 102.937 25.4933 102.097 24.88C101.264 24.26 100.757 23.3867 100.577 22.26L103.357 21.84C103.471 22.3467 103.721 22.7433 104.107 23.03C104.501 23.3167 104.997 23.46 105.597 23.46C106.091 23.46 106.471 23.3667 106.737 23.18C107.004 22.9867 107.137 22.72 107.137 22.38C107.137 22.1667 107.084 21.9967 106.977 21.87C106.871 21.7367 106.631 21.6067 106.257 21.48C105.891 21.3533 105.317 21.1867 104.537 20.98C103.657 20.7533 102.954 20.5 102.427 20.22C101.901 19.94 101.521 19.6067 101.287 19.22C101.054 18.8267 100.937 18.3533 100.937 17.8C100.937 17.1067 101.114 16.5067 101.467 16C101.821 15.4867 102.317 15.0933 102.957 14.82C103.604 14.54 104.364 14.4 105.237 14.4C106.084 14.4 106.834 14.53 107.487 14.79C108.141 15.05 108.667 15.42 109.067 15.9C109.474 16.38 109.724 16.9467 109.817 17.6L107.037 18.1C106.991 17.7 106.817 17.3833 106.517 17.15C106.217 16.9167 105.811 16.78 105.297 16.74C104.797 16.7067 104.394 16.7733 104.087 16.94C103.787 17.1067 103.637 17.3467 103.637 17.66C103.637 17.8467 103.701 18.0033 103.827 18.13C103.961 18.2567 104.231 18.3867 104.637 18.52C105.051 18.6533 105.677 18.8267 106.517 19.04C107.337 19.2533 107.994 19.5033 108.487 19.79C108.987 20.07 109.351 20.41 109.577 20.81C109.804 21.2033 109.917 21.68 109.917 22.24C109.917 23.3467 109.517 24.2167 108.717 24.85C107.917 25.4833 106.811 25.8 105.397 25.8ZM118.595 25.5C117.848 25.64 117.115 25.7 116.395 25.68C115.682 25.6667 115.042 25.5433 114.475 25.31C113.915 25.07 113.488 24.6867 113.195 24.16C112.928 23.6667 112.788 23.1667 112.775 22.66C112.762 22.1467 112.755 21.5667 112.755 20.92V11.7H115.475V20.76C115.475 21.18 115.478 21.56 115.485 21.9C115.498 22.2333 115.568 22.5 115.695 22.7C115.935 23.08 116.318 23.2867 116.845 23.32C117.372 23.3533 117.955 23.3267 118.595 23.24V25.5ZM110.915 16.8V14.7H118.595V16.8H110.915ZM124.002 25.8C123.228 25.8 122.572 25.6533 122.032 25.36C121.498 25.06 121.092 24.6633 120.812 24.17C120.538 23.67 120.402 23.12 120.402 22.52C120.402 22.02 120.478 21.5633 120.632 21.15C120.785 20.7367 121.032 20.3733 121.372 20.06C121.718 19.74 122.182 19.4733 122.762 19.26C123.162 19.1133 123.638 18.9833 124.192 18.87C124.745 18.7567 125.372 18.65 126.072 18.55C126.772 18.4433 127.542 18.3267 128.382 18.2L127.402 18.74C127.402 18.1 127.248 17.63 126.942 17.33C126.635 17.03 126.122 16.88 125.402 16.88C125.002 16.88 124.585 16.9767 124.152 17.17C123.718 17.3633 123.415 17.7067 123.242 18.2L120.782 17.42C121.055 16.5267 121.568 15.8 122.322 15.24C123.075 14.68 124.102 14.4 125.402 14.4C126.355 14.4 127.202 14.5467 127.942 14.84C128.682 15.1333 129.242 15.64 129.622 16.36C129.835 16.76 129.962 17.16 130.002 17.56C130.042 17.96 130.062 18.4067 130.062 18.9V25.5H127.682V23.28L128.022 23.74C127.495 24.4667 126.925 24.9933 126.312 25.32C125.705 25.64 124.935 25.8 124.002 25.8ZM124.582 23.66C125.082 23.66 125.502 23.5733 125.842 23.4C126.188 23.22 126.462 23.0167 126.662 22.79C126.868 22.5633 127.008 22.3733 127.082 22.22C127.222 21.9267 127.302 21.5867 127.322 21.2C127.348 20.8067 127.362 20.48 127.362 20.22L128.162 20.42C127.355 20.5533 126.702 20.6667 126.202 20.76C125.702 20.8467 125.298 20.9267 124.992 21C124.685 21.0733 124.415 21.1533 124.182 21.24C123.915 21.3467 123.698 21.4633 123.532 21.59C123.372 21.71 123.252 21.8433 123.172 21.99C123.098 22.1367 123.062 22.3 123.062 22.48C123.062 22.7267 123.122 22.94 123.242 23.12C123.368 23.2933 123.545 23.4267 123.772 23.52C123.998 23.6133 124.268 23.66 124.582 23.66ZM132.662 25.5V14.7H135.062V17.34L134.802 17C134.942 16.6267 135.128 16.2867 135.362 15.98C135.595 15.6733 135.882 15.42 136.222 15.22C136.482 15.06 136.765 14.9367 137.072 14.85C137.378 14.7567 137.695 14.7 138.022 14.68C138.348 14.6533 138.675 14.66 139.002 14.7V17.24C138.702 17.1467 138.352 17.1167 137.952 17.15C137.558 17.1767 137.202 17.2667 136.882 17.42C136.562 17.5667 136.292 17.7633 136.072 18.01C135.852 18.25 135.685 18.5367 135.572 18.87C135.458 19.1967 135.402 19.5667 135.402 19.98V25.5H132.662ZM140.884 25.5L140.904 11.1H143.664V19.9L147.324 14.7H150.684L146.784 20.1L150.944 25.5H147.404L143.664 20.3V25.5H140.884Z" fill="black"/>
</svg>
