<svg width="148" height="38" viewBox="0 0 148 38" fill="none" xmlns="http://www.w3.org/2000/svg">
<path d="M50.2884 8.77203C52.0716 8.77203 53.6151 9.06923 54.9189 9.66362C56.2419 10.258 57.2581 11.1017 57.9676 12.1946C58.677 13.2875 59.0317 14.5817 59.0317 16.0773C59.0317 17.5537 58.677 18.8479 57.9676 19.96C57.2581 21.0529 56.2419 21.8966 54.9189 22.491C53.6151 23.0662 52.0716 23.3538 50.2884 23.3538H46.2331V28.9047H41.5739V8.77203H50.2884ZM50.0296 19.5574C51.4293 19.5574 52.4934 19.2602 53.222 18.6658C53.9506 18.0522 54.3149 17.1894 54.3149 16.0773C54.3149 14.946 53.9506 14.0832 53.222 13.4888C52.4934 12.8753 51.4293 12.5685 50.0296 12.5685H46.2331V19.5574H50.0296Z" fill="#0E0C12"/>
<path d="M76.5954 21.2255C76.5954 21.283 76.5667 21.6857 76.5091 22.4335H64.8035C65.0144 23.3922 65.5129 24.1495 66.299 24.7056C67.0852 25.2616 68.063 25.5396 69.2326 25.5396C70.0379 25.5396 70.7474 25.4246 71.3609 25.1945C71.9937 24.9452 72.5785 24.5618 73.1154 24.0441L75.5025 26.6326C74.0453 28.3007 71.917 29.1348 69.1176 29.1348C67.3728 29.1348 65.8293 28.7992 64.4871 28.1281C63.1449 27.4379 62.1095 26.4888 61.3809 25.2808C60.6523 24.0728 60.288 22.7019 60.288 21.168C60.288 19.6532 60.6427 18.2919 61.3521 17.0839C62.0808 15.8568 63.0682 14.9077 64.3145 14.2366C65.58 13.5463 66.9893 13.2012 68.5424 13.2012C70.0571 13.2012 71.4281 13.5272 72.6552 14.1791C73.8823 14.831 74.841 15.7705 75.5313 16.9977C76.2407 18.2056 76.5954 19.6149 76.5954 21.2255ZM68.5711 16.595C67.5549 16.595 66.7017 16.8826 66.0114 17.4578C65.3212 18.033 64.8993 18.8192 64.7459 19.8162H72.3676C72.2142 18.8384 71.7924 18.0618 71.1021 17.4866C70.4118 16.8922 69.5682 16.595 68.5711 16.595Z" fill="#0E0C12"/>
<path d="M83.2927 15.4733C83.8295 14.7255 84.5486 14.1599 85.4497 13.7764C86.3701 13.393 87.4247 13.2012 88.6134 13.2012V17.3428C88.1149 17.3044 87.7794 17.2853 87.6068 17.2853C86.3222 17.2853 85.3155 17.6496 84.5869 18.3782C83.8583 19.0876 83.494 20.1614 83.494 21.5994V28.9047H79.0073V13.4313H83.2927V15.4733Z" fill="#0E0C12"/>
<path d="M95.7365 13.7764H99.7055V17.2277H95.8515V28.9047H91.3648V17.2277H88.9777V13.7764H91.3648V13.0862C91.3648 11.3222 91.8825 9.92247 92.9179 8.88707C93.9725 7.85168 95.4489 7.33398 97.3471 7.33398C98.0182 7.33398 98.6509 7.41068 99.2453 7.56407C99.8589 7.69829 100.367 7.89962 100.77 8.16805L99.5904 11.418C99.0727 11.0537 98.4688 10.8716 97.7785 10.8716C96.4172 10.8716 95.7365 11.6194 95.7365 13.1149V13.7764Z" fill="#0E0C12"/>
<path d="M116.326 21.2255C116.326 21.283 116.297 21.6857 116.24 22.4335H104.534C104.745 23.3922 105.243 24.1495 106.03 24.7056C106.816 25.2616 107.794 25.5396 108.963 25.5396C109.768 25.5396 110.478 25.4246 111.091 25.1945C111.724 24.9452 112.309 24.5618 112.846 24.0441L115.233 26.6326C113.776 28.3007 111.647 29.1348 108.848 29.1348C107.103 29.1348 105.56 28.7992 104.218 28.1281C102.875 27.4379 101.84 26.4888 101.111 25.2808C100.383 24.0728 100.018 22.7019 100.018 21.168C100.018 19.6532 100.373 18.2919 101.083 17.0839C101.811 15.8568 102.799 14.9077 104.045 14.2366C105.31 13.5463 106.72 13.2012 108.273 13.2012C109.788 13.2012 111.159 13.5272 112.386 14.1791C113.613 14.831 114.572 15.7705 115.262 16.9977C115.971 18.2056 116.326 19.6149 116.326 21.2255ZM108.302 16.595C107.285 16.595 106.432 16.8826 105.742 17.4578C105.052 18.033 104.63 18.8192 104.476 19.8162H112.098C111.945 18.8384 111.523 18.0618 110.833 17.4866C110.142 16.8922 109.299 16.595 108.302 16.595Z" fill="#0E0C12"/>
<path d="M134.441 13.4313V34.4843H129.955V27.2653C128.842 28.5116 127.299 29.1348 125.324 29.1348C123.867 29.1348 122.544 28.8088 121.355 28.1569C120.185 27.505 119.265 26.575 118.594 25.3671C117.923 24.1591 117.587 22.7594 117.587 21.168C117.587 19.5765 117.923 18.1768 118.594 16.9689C119.265 15.7609 120.185 14.831 121.355 14.1791C122.544 13.5272 123.867 13.2012 125.324 13.2012C127.433 13.2012 129.044 13.8723 130.156 15.2145V13.4313H134.441ZM126.101 25.4534C127.232 25.4534 128.171 25.0699 128.919 24.3029C129.667 23.5168 130.041 22.4718 130.041 21.168C130.041 19.8642 129.667 18.8288 128.919 18.0618C128.171 17.2757 127.232 16.8826 126.101 16.8826C124.95 16.8826 124.001 17.2757 123.253 18.0618C122.505 18.8288 122.132 19.8642 122.132 21.168C122.132 22.4718 122.505 23.5168 123.253 24.3029C124.001 25.0699 124.95 25.4534 126.101 25.4534Z" fill="#0E0C12"/>
<path d="M148 28.1569C147.559 28.4828 147.013 28.7321 146.361 28.9047C145.728 29.0581 145.057 29.1348 144.347 29.1348C142.507 29.1348 141.078 28.665 140.062 27.7255C139.065 26.7859 138.566 25.4054 138.566 23.5839V17.2277H136.179V13.7764H138.566V10.0088H143.053V13.7764H146.907V17.2277H143.053V23.5264C143.053 24.1783 143.216 24.6864 143.542 25.0507C143.887 25.3958 144.367 25.5684 144.98 25.5684C145.69 25.5684 146.294 25.3767 146.792 24.9932L148 28.1569Z" fill="#0E0C12"/>
<path d="M13.5835 0.93893C15.7518 -0.312977 18.4234 -0.312976 20.5917 0.93893L30.6633 6.75373C32.8316 8.00563 34.1674 10.3193 34.1674 12.8231V24.4527C34.1674 26.9565 32.8316 29.2701 30.6633 30.522L20.5917 36.3368C18.4234 37.5887 15.7518 37.5887 13.5835 36.3368L3.51194 30.522C1.34358 29.2701 0.0078125 26.9565 0.0078125 24.4527V12.8231C0.0078125 10.3193 1.34358 8.00563 3.51195 6.75373L13.5835 0.93893Z" fill="#6B48FF"/>
<mask id="mask0_735_3884" style="mask-type:alpha" maskUnits="userSpaceOnUse" x="0" y="0" width="35" height="38">
<path d="M13.5757 0.939784C15.744 -0.312122 18.4156 -0.312122 20.5839 0.939784L30.6554 6.75458C32.8238 8.00649 34.1596 10.3201 34.1596 12.8239V24.4535C34.1596 26.9573 32.8238 29.2709 30.6554 30.5228L20.5839 36.3376C18.4156 37.5896 15.744 37.5896 13.5757 36.3376L3.50413 30.5228C1.33577 29.2709 0 26.9573 0 24.4535V12.8239C0 10.3201 1.33577 8.00649 3.50413 6.75458L13.5757 0.939784Z" fill="#6B48FF"/>
</mask>
<g mask="url(#mask0_735_3884)">
<path d="M40.1357 40.2062C40.1357 52.9634 29.7939 63.3053 17.0366 63.3053C4.27932 63.3053 -6.0625 52.9634 -6.0625 40.2062C-6.0625 27.4489 4.27932 17.1071 17.0366 17.1071C29.7939 17.1071 40.1357 27.4489 40.1357 40.2062Z" fill="url(#paint0_linear_735_3884)" fill-opacity="0.7"/>
<path d="M35.9481 42.2549C35.9481 52.687 27.4811 61.1439 17.0365 61.1439C6.59199 61.1439 -1.875 52.687 -1.875 42.2549C-1.875 31.8228 6.59199 23.3658 17.0365 23.3658C27.4811 23.3658 35.9481 31.8228 35.9481 42.2549Z" fill="url(#paint1_linear_735_3884)"/>
</g>
<defs>
<linearGradient id="paint0_linear_735_3884" x1="17.0366" y1="17.1071" x2="17.0366" y2="37.4861" gradientUnits="userSpaceOnUse">
<stop stop-color="#A7A7FF" stop-opacity="0.54"/>
<stop offset="1" stop-color="#C5C5FF" stop-opacity="0"/>
</linearGradient>
<linearGradient id="paint1_linear_735_3884" x1="17.0365" y1="23.3658" x2="17.0365" y2="40.0306" gradientUnits="userSpaceOnUse">
<stop stop-color="#A7A7FF" stop-opacity="0.54"/>
<stop offset="1" stop-color="#C5C5FF" stop-opacity="0"/>
</linearGradient>
</defs>
</svg>
